<svg width="20" height="20" viewBox="0 0 20 20" fill="none" xmlns="http://www.w3.org/2000/svg">
<path fill-rule="evenodd" clip-rule="evenodd" d="M13.8713 17.7399C14.257 19.0783 15.4817 20 16.8746 20C18.6007 20 20 18.6007 20 16.8746V11.2394C20 8.18825 16.6685 6.30618 14.0551 7.88103C12.535 8.79702 11.8198 10.6198 12.3111 12.3251L13.8713 17.7399ZM11.1905 8.43579C11.2233 8.54966 11.3548 8.60181 11.4568 8.54134L19.8948 3.53516C19.96 3.49649 20 3.4263 20 3.3505C20 3.18342 19.8176 3.08036 19.6745 3.1666L11.271 8.23064C11.2008 8.27293 11.1678 8.35707 11.1905 8.43579ZM10.2984 8.8167C10.3803 8.76738 10.4866 8.80953 10.5125 8.90153L10.5306 8.96628C10.5483 9.02924 10.5215 9.09622 10.4653 9.12959C10.3839 9.17785 10.2789 9.13622 10.2527 9.04533L10.2341 8.98071C10.216 8.91777 10.2423 8.85051 10.2984 8.8167ZM9.85855 3.81328C10.3999 5.692 12.5705 6.55244 14.252 5.55483L19.3308 2.5417C19.7456 2.29556 20 1.84889 20 1.36648C20 0.611796 19.3882 0 18.6335 0H12.7282C10.7413 0 9.30843 1.90406 9.85855 3.81328ZM7.8803 0C7.95919 0 8.02844 0.052491 8.04976 0.128445L10.2102 7.82476C10.2284 7.88949 10.2008 7.95836 10.143 7.99266C10.0593 8.04229 9.95136 7.99949 9.92443 7.90604L7.71116 0.224749C7.67874 0.112222 7.76319 0 7.8803 0ZM10.6219 9.94993C10.7014 9.90199 10.8048 9.94296 10.8299 10.0324L13.5903 19.8659C13.6092 19.9332 13.5585 20 13.4886 20C13.4416 20 13.4002 19.9689 13.3872 19.9237L10.5593 10.1094C10.5417 10.0482 10.5673 9.98279 10.6219 9.94993ZM9.49188 9.70707C9.55929 9.66708 9.59142 9.58681 9.57024 9.51135C9.53934 9.40126 9.4121 9.35082 9.31416 9.40984L0.065832 14.983C0.0249782 15.0076 0 15.0518 0 15.0995C0 15.205 0.114783 15.2703 0.205477 15.2165L9.49188 9.70707ZM6.46262 10.1762C8.12831 9.18793 8.92258 7.20412 8.39914 5.33941L7.70437 2.86438C7.2289 1.17057 5.6845 0 3.92522 0C1.75738 0 0 1.75738 0 3.92522V6.49592C0 9.81265 3.61012 11.8685 6.46262 10.1762ZM7.5309 20C10.0332 20 11.8439 17.611 11.1676 15.2018C10.4935 12.8002 7.71778 11.7 5.58129 12.9874L1.1283 15.6709C0.428104 16.0928 0 16.8506 0 17.6681C0 18.956 1.04401 20 2.33187 20H7.5309Z" fill="#FF6363"/>
</svg>
